<svg version="1.1" id="Layer_1" xmlns="http://www.w3.org/2000/svg" xmlns:xlink="http://www.w3.org/1999/xlink" x="0px" y="0px"
	 width="100%" viewBox="0 0 512 512" enable-background="new 0 0 512 512" xml:space="preserve">
<path fill="#000000" opacity="1.000000" stroke="none" 
	d="
M273.000000,1.000003 
	C352.952179,1.000000 432.904327,1.000000 513.000000,1.000000 
	C513.000000,161.689285 513.000000,322.378601 512.690552,483.807373 
	C510.013245,480.839508 506.429474,479.111053 502.229797,479.035278 
	C494.815735,478.901428 487.395660,479.101227 479.514832,479.096344 
	C464.053833,479.015228 449.056061,478.999146 434.142029,478.635803 
	C438.682129,476.248230 439.999298,472.455780 439.999512,467.932678 
	C440.000641,444.830017 439.702057,421.721283 440.173798,398.628235 
	C440.323730,391.288452 436.231201,387.864594 429.074890,387.957245 
	C417.110046,388.112213 405.141754,387.999390 393.174896,387.999664 
	C384.435883,387.999847 383.094025,388.930786 380.069824,397.509155 
	C380.059845,420.968811 380.107788,443.967987 380.185486,467.354523 
	C380.846222,472.452881 382.688171,476.439362 386.476440,478.990234 
	C371.348541,478.959381 356.685608,478.921387 342.152771,478.561401 
	C346.479706,476.481873 347.866241,472.795074 347.928497,468.801666 
	C348.122864,456.331604 348.128387,443.854065 347.879517,431.385956 
	C347.835480,429.180847 346.638245,426.682037 345.246735,424.880188 
	C341.112366,419.526672 334.948822,419.959747 329.026794,419.430115 
	C328.984131,386.409912 328.960266,353.851288 329.386353,321.170776 
	C347.259460,321.065002 362.810486,316.460449 375.711060,303.938599 
	C392.623932,287.522186 398.554871,267.684204 393.456207,245.151901 
	C386.578003,214.755157 378.744446,184.567688 370.911713,154.396606 
	C366.574951,137.691788 351.809204,123.847656 333.871338,123.589355 
	C323.100220,123.199242 312.562469,123.182129 301.559448,123.092651 
	C291.408417,122.967468 281.722656,122.914650 272.205322,122.520683 
	C284.075409,119.850212 294.104889,113.915451 301.857849,105.346512 
	C315.170349,90.632874 321.500427,73.302856 318.077698,52.990875 
	C314.409210,31.220589 302.739746,15.738338 282.641296,6.003434 
	C280.097992,4.997378 277.849762,4.264862 275.731049,3.259493 
	C274.696289,2.768482 273.902710,1.769218 273.000000,1.000003 
z"/>
<path fill="#000000" opacity="1.000000" stroke="none" 
	d="
M1.000002,470.000000 
	C1.000000,313.762451 1.000000,157.524902 1.000000,1.000000 
	C80.688446,1.000000 160.377243,1.000000 240.859146,1.302475 
	C240.855942,2.074595 240.114059,2.716004 239.255173,2.988113 
	C226.394562,7.062545 215.546158,14.047136 207.497482,25.016193 
	C201.000320,33.870758 197.018478,43.692955 195.611115,54.682449 
	C194.109909,66.404854 195.547363,77.508118 200.942123,88.434959 
	C205.661636,95.370743 209.572006,102.705704 215.197327,108.323357 
	C222.488815,115.604897 232.057053,119.807472 241.501038,122.920250 
	C235.710312,122.988235 230.380829,122.916550 225.054398,123.013451 
	C208.982666,123.305801 192.879547,123.142525 176.850342,124.143936 
	C161.115341,125.126968 146.791107,138.995087 142.953354,154.837158 
	C136.943756,179.644592 130.549866,204.358688 124.441940,229.142685 
	C121.177887,242.387161 117.166092,255.396194 119.836243,269.544861 
	C123.627052,289.631683 134.446732,304.185852 152.005981,313.948761 
	C162.222809,319.629333 173.536835,321.042938 185.020172,321.689636 
	C184.981094,354.722382 184.965942,387.306519 184.506134,419.939758 
	C182.733398,419.992462 181.405243,419.989502 180.077225,420.000610 
	C170.993408,420.076691 166.000168,425.114227 166.000031,434.199249 
	C165.999863,445.156219 166.132263,456.115509 165.941940,467.069183 
	C165.852066,472.241547 167.734985,476.097321 171.552582,478.950409 
	C169.465759,478.979889 167.795166,478.973389 166.072556,478.542175 
	C164.144745,468.695831 162.315475,459.264587 160.383179,449.854523 
	C156.618958,431.523163 152.582260,413.244537 149.082840,394.863281 
	C147.112015,384.511200 143.727325,380.093170 135.075806,380.058960 
	C100.599785,379.922638 66.120621,379.793671 31.648127,380.168640 
	C24.161919,380.250092 20.651566,382.537231 19.002380,391.427979 
	C18.556356,393.832520 18.187916,396.252930 17.683870,398.644989 
	C13.125728,420.276428 8.590640,441.913025 3.904348,463.516785 
	C3.413136,465.781311 1.990499,467.843781 1.000002,470.000000 
z"/>
<path fill="#8D9CA8" opacity="1.000000" stroke="none" 
	d="
M166.124557,478.966888 
	C167.795166,478.973389 169.465759,478.979889 171.974762,478.991272 
	C174.605301,479.306244 176.397415,479.885956 178.189529,479.885925 
	C204.459274,479.885529 230.729004,479.807861 257.463287,479.812378 
	C281.348083,479.901276 304.768555,479.983734 328.188416,479.902527 
	C332.800964,479.886536 337.411285,479.239410 342.022644,478.883362 
	C356.685608,478.921387 371.348541,478.959381 386.902344,479.007050 
	C403.214905,479.005493 418.636627,478.994263 434.058319,478.983032 
	C449.056061,478.999146 464.053833,479.015228 479.519135,479.554443 
	C479.991119,491.051697 479.995544,502.025848 480.000000,513.000000 
	C320.333313,513.000000 160.666656,513.000000 1.000000,513.000000 
	C1.000000,502.252380 1.000000,491.594849 1.246846,480.440857 
	C1.493692,479.944397 1.977380,479.830933 2.445979,479.868256 
	C56.949181,479.887115 110.983780,479.868622 165.215836,479.807007 
	C165.671478,479.633057 165.831360,479.426178 165.959106,479.110077 
	C166.025284,479.076843 166.124557,478.966888 166.124557,478.966888 
z"/>
<path fill="#C7865B" opacity="1.000000" stroke="none" 
	d="
M165.018387,479.850128 
	C110.983780,479.868622 56.949181,479.887115 2.313485,479.698120 
	C1.507625,479.279663 1.270161,479.116089 1.000000,479.000000 
	C1.000000,476.299988 1.000000,473.599976 1.000002,470.449982 
	C1.990499,467.843781 3.413136,465.781311 3.904348,463.516785 
	C8.590640,441.913025 13.125728,420.276428 17.683870,398.644989 
	C18.187916,396.252930 18.556356,393.832520 19.002380,391.427979 
	C20.651566,382.537231 24.161919,380.250092 31.648127,380.168640 
	C66.120621,379.793671 100.599785,379.922638 135.075806,380.058960 
	C143.727325,380.093170 147.112015,384.511200 149.082840,394.863281 
	C152.582260,413.244537 156.618958,431.523163 160.383179,449.854523 
	C162.315475,459.264587 164.144745,468.695831 166.072556,478.542175 
	C166.124557,478.966888 166.025284,479.076843 165.782715,479.184631 
	C165.320740,479.435730 165.146820,479.621643 165.018387,479.850128 
M114.240814,422.645905 
	C111.465706,421.468719 108.718826,419.360291 105.910591,419.275146 
	C93.589897,418.901489 81.251450,419.109589 68.919441,419.114838 
	C65.586845,419.116241 62.240612,418.962219 58.925114,419.208710 
	C54.705875,419.522430 51.072044,423.228241 51.022903,426.881256 
	C50.974167,430.504486 54.669540,433.803864 59.134396,434.089020 
	C60.130566,434.152618 61.133572,434.114105 62.133430,434.114197 
	C76.465225,434.115234 90.797035,434.126099 105.128807,434.110565 
	C113.925240,434.101044 115.540604,432.263367 114.240814,422.645905 
z"/>
<path fill="#FED2A4" opacity="1.000000" stroke="none" 
	d="
M200.895493,88.070587 
	C195.547363,77.508118 194.109909,66.404854 195.611115,54.682449 
	C197.018478,43.692955 201.000320,33.870758 207.497482,25.016193 
	C215.546158,14.047136 226.394562,7.062545 239.255173,2.988113 
	C240.114059,2.716004 240.855942,2.074595 241.326126,1.302475 
	C251.354233,1.000000 261.708466,1.000000 272.531342,1.000003 
	C273.902710,1.769218 274.696289,2.768482 275.731049,3.259493 
	C277.849762,4.264862 280.097992,4.997378 282.657715,6.384007 
	C286.158356,17.762890 288.523193,28.461969 287.211304,40.111305 
	C284.130219,67.470169 257.099609,92.611862 229.631531,93.112335 
	C219.607208,93.294975 210.248825,91.023209 200.895493,88.070587 
z"/>
<path fill="#7A8C98" opacity="1.000000" stroke="none" 
	d="
M480.468658,513.000000 
	C479.995544,502.025848 479.991119,491.051697 479.982391,479.619446 
	C487.395660,479.101227 494.815735,478.901428 502.229797,479.035278 
	C506.429474,479.111053 510.013245,480.839508 512.690552,484.273407 
	C513.000000,493.597931 513.000000,503.195831 513.000000,513.000000 
	C502.313324,513.000000 491.625305,513.000000 480.468658,513.000000 
z"/>
<path fill="#C08967" opacity="1.000000" stroke="none" 
	d="
M1.000000,479.250000 
	C1.270161,479.116089 1.507625,479.279663 1.844886,479.660828 
	C1.977380,479.830933 1.493692,479.944397 1.246846,479.972198 
	C1.000000,480.000000 1.000000,479.500000 1.000000,479.250000 
z"/>
<path fill="#B3E59F" opacity="1.000000" stroke="none" 
	d="
M185.044098,321.241028 
	C173.536835,321.042938 162.222809,319.629333 152.005981,313.948761 
	C134.446732,304.185852 123.627052,289.631683 119.836243,269.544861 
	C117.166092,255.396194 121.177887,242.387161 124.441940,229.142685 
	C130.549866,204.358688 136.943756,179.644592 142.953354,154.837158 
	C146.791107,138.995087 161.115341,125.126968 176.850342,124.143936 
	C192.879547,123.142525 208.982666,123.305801 225.054398,123.013451 
	C230.380829,122.916550 235.710312,122.988235 241.938034,122.960426 
	C252.570724,122.912613 262.303802,122.887222 272.036865,122.861839 
	C281.722656,122.914650 291.408417,122.967468 301.849976,123.307739 
	C305.074615,124.061180 307.543488,124.527161 310.381897,125.050087 
	C327.450928,129.788391 337.017609,140.950317 340.995728,157.618164 
	C345.974701,178.479355 351.541779,199.200867 356.452881,220.077286 
	C359.710480,233.924835 364.859741,247.384384 364.107056,262.080658 
	C362.884399,285.953278 351.033661,302.609650 330.482056,313.694305 
	C329.177246,314.398102 327.347565,314.457031 325.805328,314.321869 
	C322.873474,314.064880 319.984039,313.143066 317.057556,313.037750 
	C305.101288,312.607605 293.066803,313.080505 281.197235,311.877838 
	C269.996826,310.743042 264.049255,301.993958 265.025024,290.603149 
	C265.810944,281.428528 274.698212,274.012329 284.957581,274.003540 
	C299.784698,273.990814 314.611847,274.021393 329.438934,273.993561 
	C342.760162,273.968536 350.904541,263.096924 347.272034,250.359665 
	C345.402863,243.805344 343.711090,237.200424 341.940796,230.617935 
	C337.148224,212.797623 332.442596,194.953201 327.512695,177.170975 
	C326.009766,171.749908 321.767700,169.110703 317.618774,170.331009 
	C313.140778,171.648132 311.353943,175.502472 312.860321,181.184296 
	C319.037811,204.484833 325.319946,227.757706 331.459869,251.068069 
	C332.246674,254.055206 334.922638,258.413727 328.114319,257.565125 
	C327.736328,255.551239 327.320618,253.962265 327.058167,252.348343 
	C322.831604,226.354935 293.542419,216.794739 273.606323,228.990021 
	C264.904114,234.313354 260.095795,242.636337 256.721710,251.880081 
	C255.931213,250.452621 255.345139,249.271210 254.943451,248.030121 
	C248.871582,229.269302 232.226776,221.555969 214.246552,224.311752 
	C198.393967,226.741409 185.255341,242.537903 185.473145,257.981445 
	C181.959442,258.122314 180.912094,256.892792 181.837372,253.708771 
	C183.692505,247.324860 185.305328,240.870499 187.015930,234.444626 
	C191.848923,216.289490 196.716156,198.143356 201.487991,179.972153 
	C202.666199,175.485474 200.613052,171.726868 196.600311,170.407288 
	C193.115631,169.261368 188.868973,171.294403 187.175537,175.057175 
	C186.496017,176.567047 186.036667,178.189804 185.605652,179.795685 
	C179.270203,203.400284 172.833160,226.978668 166.686035,250.632355 
	C163.255646,263.832184 171.318466,273.977936 184.840714,273.995697 
	C199.835770,274.015381 214.832260,273.873413 229.825516,274.038666 
	C244.590607,274.201416 253.562515,289.449158 246.767914,302.502899 
	C242.490448,310.720734 234.882355,312.708435 226.620743,312.916962 
	C215.964355,313.185852 205.295944,312.952209 194.632980,312.997437 
	C188.160522,313.024902 186.529343,314.617035 185.716370,321.168152 
	C185.489883,321.151917 185.044098,321.241028 185.044098,321.241028 
M229.547363,196.393799 
	C229.895096,196.951019 230.234497,197.513641 230.591904,198.064590 
	C232.908890,201.636322 235.596222,204.162476 240.311295,202.047546 
	C244.762619,200.050934 245.600830,196.615784 244.559433,192.287170 
	C244.291794,191.174759 244.090057,190.046509 244.520401,188.671051 
	C249.685059,186.409760 254.849716,184.148468 260.250336,182.559784 
	C263.197998,187.581146 267.248322,189.353317 270.989075,187.258423 
	C275.047791,184.985443 275.868073,180.613449 273.235596,175.278717 
	C273.843536,174.788101 274.408630,174.228821 275.066406,173.817932 
	C279.505035,171.045395 281.008301,167.370850 279.219238,163.567459 
	C277.293823,159.474167 273.512421,158.337006 268.407990,160.281738 
	C267.652039,160.569733 266.841187,160.713547 265.919373,160.231201 
	C263.158478,154.692841 259.463043,153.053528 255.053436,155.410965 
	C250.543808,157.821899 249.825562,161.897797 252.652863,167.622711 
	C247.450943,170.215256 242.249023,172.807785 236.488892,174.916611 
	C232.236038,169.129501 229.263184,167.806320 225.216476,169.899368 
	C221.120392,172.017960 220.407013,175.404816 222.683701,181.847626 
	C222.791214,182.151886 222.779816,182.498184 222.144928,183.001114 
	C216.013504,186.093140 214.252502,190.925369 217.893723,195.108643 
	C221.229843,198.941406 225.085098,198.479996 229.547363,196.393799 
z"/>
<path fill="#95D6A4" opacity="1.000000" stroke="none" 
	d="
M328.147858,257.978394 
	C334.922638,258.413727 332.246674,254.055206 331.459869,251.068069 
	C325.319946,227.757706 319.037811,204.484833 312.860321,181.184296 
	C311.353943,175.502472 313.140778,171.648132 317.618774,170.331009 
	C321.767700,169.110703 326.009766,171.749908 327.512695,177.170975 
	C332.442596,194.953201 337.148224,212.797623 341.940796,230.617935 
	C343.711090,237.200424 345.402863,243.805344 347.272034,250.359665 
	C350.904541,263.096924 342.760162,273.968536 329.438934,273.993561 
	C314.611847,274.021393 299.784698,273.990814 284.957581,274.003540 
	C274.698212,274.012329 265.810944,281.428528 265.025024,290.603149 
	C264.049255,301.993958 269.996826,310.743042 281.197235,311.877838 
	C293.066803,313.080505 305.101288,312.607605 317.057556,313.037750 
	C319.984039,313.143066 322.873474,314.064880 325.805328,314.321869 
	C327.347565,314.457031 329.177246,314.398102 330.482056,313.694305 
	C351.033661,302.609650 362.884399,285.953278 364.107056,262.080658 
	C364.859741,247.384384 359.710480,233.924835 356.452881,220.077286 
	C351.541779,199.200867 345.974701,178.479355 340.995728,157.618164 
	C337.017609,140.950317 327.450928,129.788391 310.702637,124.788956 
	C318.470825,124.301376 326.287750,124.131866 334.104706,123.962357 
	C351.809204,123.847656 366.574951,137.691788 370.911713,154.396606 
	C378.744446,184.567688 386.578003,214.755157 393.456207,245.151901 
	C398.554871,267.684204 392.623932,287.522186 375.711060,303.938599 
	C362.810486,316.460449 347.259460,321.065002 329.118286,321.336914 
	C326.647430,326.239319 323.330231,328.142487 318.384979,328.068939 
	C307.261932,327.903442 296.132141,327.868286 285.010254,328.068451 
	C277.841919,328.197449 271.411072,326.483154 265.302917,322.680267 
	C262.937256,321.207428 259.800934,320.972412 256.620117,320.120300 
	C253.617462,320.948029 251.013092,321.836945 248.402847,322.708252 
	C243.129959,324.468323 237.924850,327.416229 232.564911,327.733948 
	C219.845490,328.487885 207.051819,328.042938 194.288696,327.976654 
	C189.804825,327.953400 186.682327,325.957153 185.942871,321.184418 
	C186.529343,314.617035 188.160522,313.024902 194.632980,312.997437 
	C205.295944,312.952209 215.964355,313.185852 226.620743,312.916962 
	C234.882355,312.708435 242.490448,310.720734 246.767914,302.502899 
	C253.562515,289.449158 244.590607,274.201416 229.825516,274.038666 
	C214.832260,273.873413 199.835770,274.015381 184.840714,273.995697 
	C171.318466,273.977936 163.255646,263.832184 166.686035,250.632355 
	C172.833160,226.978668 179.270203,203.400284 185.605652,179.795685 
	C186.036667,178.189804 186.496017,176.567047 187.175537,175.057175 
	C188.868973,171.294403 193.115631,169.261368 196.600311,170.407288 
	C200.613052,171.726868 202.666199,175.485474 201.487991,179.972153 
	C196.716156,198.143356 191.848923,216.289490 187.015930,234.444626 
	C185.305328,240.870499 183.692505,247.324860 181.837372,253.708771 
	C180.912094,256.892792 181.959442,258.122314 185.829178,258.208984 
	C201.202881,258.564514 215.844681,258.746948 230.486984,258.807373 
	C238.881302,258.842010 246.009537,262.041382 252.449341,267.128967 
	C253.997711,268.352203 255.491486,269.644562 257.331116,270.820557 
	C266.094879,261.991974 276.324249,258.197998 288.517120,258.659485 
	C299.942871,259.091949 311.398102,258.784668 322.839844,258.717010 
	C324.610565,258.706543 326.378601,258.236115 328.147858,257.978394 
z"/>
<path fill="#3A67C1" opacity="1.000000" stroke="none" 
	d="
M257.015686,320.173462 
	C259.800934,320.972412 262.937256,321.207428 265.302917,322.680267 
	C271.411072,326.483154 277.841919,328.197449 285.010254,328.068451 
	C296.132141,327.868286 307.261932,327.903442 318.384979,328.068939 
	C323.330231,328.142487 326.647430,326.239319 328.668335,321.458740 
	C328.960266,353.851288 328.984131,386.409912 328.656555,419.631744 
	C304.515106,420.363892 280.725159,420.432831 256.955566,420.067200 
	C256.989197,386.479553 257.002441,353.326508 257.015686,320.173462 
z"/>
<path fill="#FFBD86" opacity="1.000000" stroke="none" 
	d="
M272.205322,122.520683 
	C262.303802,122.887222 252.570724,122.912613 242.400665,122.897827 
	C232.057053,119.807472 222.488815,115.604897 215.197327,108.323357 
	C209.572006,102.705704 205.661636,95.370743 200.942123,88.434959 
	C210.248825,91.023209 219.607208,93.294975 229.631531,93.112335 
	C257.099609,92.611862 284.130219,67.470169 287.211304,40.111305 
	C288.523193,28.461969 286.158356,17.762890 283.006134,6.545193 
	C302.739746,15.738338 314.409210,31.220589 318.077698,52.990875 
	C321.500427,73.302856 315.170349,90.632874 301.857849,105.346512 
	C294.104889,113.915451 284.075409,119.850212 272.205322,122.520683 
z"/>
<path fill="#B2E5FB" opacity="1.000000" stroke="none" 
	d="
M434.142029,478.635803 
	C418.636627,478.994263 403.214905,479.005493 387.367279,478.999878 
	C382.688171,476.439362 380.846222,472.452881 380.415588,467.015747 
	C380.730438,465.806152 380.944489,465.322754 380.945129,464.839081 
	C380.974274,443.339996 380.997375,421.840881 380.960022,400.341858 
	C380.958130,399.243683 380.417572,398.146393 380.127808,397.048706 
	C383.094025,388.930786 384.435883,387.999847 393.174896,387.999664 
	C405.141754,387.999390 417.110046,388.112213 429.074890,387.957245 
	C436.231201,387.864594 440.323730,391.288452 440.173798,398.628235 
	C439.702057,421.721283 440.000641,444.830017 439.999512,467.932678 
	C439.999298,472.455780 438.682129,476.248230 434.142029,478.635803 
z"/>
<path fill="#FFBD86" opacity="1.000000" stroke="none" 
	d="
M256.935211,420.501770 
	C280.725159,420.432831 304.515106,420.363892 328.675293,420.093262 
	C334.948822,419.959747 341.112366,419.526672 345.246735,424.880188 
	C346.638245,426.682037 347.835480,429.180847 347.879517,431.385956 
	C348.128387,443.854065 348.122864,456.331604 347.928497,468.801666 
	C347.866241,472.795074 346.479706,476.481873 342.152771,478.561401 
	C337.411285,479.239410 332.800964,479.886536 328.188416,479.902527 
	C304.768555,479.983734 281.348083,479.901276 257.463379,479.365173 
	C256.997955,459.572784 256.996979,440.291351 256.981110,420.882874 
	C256.966217,420.755798 256.935211,420.501770 256.935211,420.501770 
z"/>
<path fill="#AAD5FF" opacity="1.000000" stroke="none" 
	d="
M380.069824,397.509155 
	C380.417572,398.146393 380.958130,399.243683 380.960022,400.341858 
	C380.997375,421.840881 380.974274,443.339996 380.945129,464.839081 
	C380.944489,465.322754 380.730438,465.806152 380.385864,466.628418 
	C380.107788,443.967987 380.059845,420.968811 380.069824,397.509155 
z"/>
<path fill="#A4DEA3" opacity="1.000000" stroke="none" 
	d="
M333.871338,123.589355 
	C326.287750,124.131866 318.470825,124.301376 310.333130,124.732025 
	C307.543488,124.527161 305.074615,124.061180 302.315186,123.380104 
	C312.562469,123.182129 323.100220,123.199242 333.871338,123.589355 
z"/>
<path fill="#4172CA" opacity="1.000000" stroke="none" 
	d="
M256.620087,320.120270 
	C257.002441,353.326508 256.989197,386.479553 256.955566,420.067200 
	C256.935211,420.501770 256.966217,420.755798 256.520203,420.793365 
	C234.467834,420.812134 212.861343,420.817535 191.255188,420.736237 
	C189.152695,420.728333 187.052216,420.185272 184.950790,419.890656 
	C184.965942,387.306519 184.981094,354.722382 185.020172,321.689636 
	C185.044098,321.241028 185.489883,321.151917 185.716370,321.168152 
	C186.682327,325.957153 189.804825,327.953400 194.288696,327.976654 
	C207.051819,328.042938 219.845490,328.487885 232.564911,327.733948 
	C237.924850,327.416229 243.129959,324.468323 248.402847,322.708252 
	C251.013092,321.836945 253.617462,320.948029 256.620087,320.120270 
z"/>
<path fill="#FED2A4" opacity="1.000000" stroke="none" 
	d="
M184.506134,419.939758 
	C187.052216,420.185272 189.152695,420.728333 191.255188,420.736237 
	C212.861343,420.817535 234.467834,420.812134 256.535095,420.920410 
	C256.996979,440.291351 256.997955,459.572784 256.998840,479.301392 
	C230.729004,479.807861 204.459274,479.885529 178.189529,479.885925 
	C176.397415,479.885956 174.605301,479.306244 172.390991,478.955322 
	C167.734985,476.097321 165.852066,472.241547 165.941940,467.069183 
	C166.132263,456.115509 165.999863,445.156219 166.000031,434.199249 
	C166.000168,425.114227 170.993408,420.076691 180.077225,420.000610 
	C181.405243,419.989502 182.733398,419.992462 184.506134,419.939758 
z"/>
<path fill="#C08967" opacity="1.000000" stroke="none" 
	d="
M165.215836,479.807007 
	C165.146820,479.621643 165.320740,479.435730 165.716537,479.217834 
	C165.831360,479.426178 165.671478,479.633057 165.215836,479.807007 
z"/>
<path fill="#E6F7FE" opacity="1.000000" stroke="none" 
	d="
M114.476562,422.983826 
	C115.540604,432.263367 113.925240,434.101044 105.128807,434.110565 
	C90.797035,434.126099 76.465225,434.115234 62.133430,434.114197 
	C61.133572,434.114105 60.130566,434.152618 59.134396,434.089020 
	C54.669540,433.803864 50.974167,430.504486 51.022903,426.881256 
	C51.072044,423.228241 54.705875,419.522430 58.925114,419.208710 
	C62.240612,418.962219 65.586845,419.116241 68.919441,419.114838 
	C81.251450,419.109589 93.589897,418.901489 105.910591,419.275146 
	C108.718826,419.360291 111.465706,421.468719 114.476562,422.983826 
z"/>
<path fill="#4273CA" opacity="1.000000" stroke="none" 
	d="
M257.010376,270.905121 
	C255.491486,269.644562 253.997711,268.352203 252.449341,267.128967 
	C246.009537,262.041382 238.881302,258.842010 230.486984,258.807373 
	C215.844681,258.746948 201.202881,258.564514 186.204834,258.205688 
	C185.255341,242.537903 198.393967,226.741409 214.246552,224.311752 
	C232.226776,221.555969 248.871582,229.269302 254.943451,248.030121 
	C255.345139,249.271210 255.931213,250.452621 256.784729,252.261429 
	C257.095398,258.875763 257.052887,264.890442 257.010376,270.905121 
z"/>
<path fill="#3B68C1" opacity="1.000000" stroke="none" 
	d="
M257.331116,270.820557 
	C257.052887,264.890442 257.095398,258.875763 257.074890,252.479721 
	C260.095795,242.636337 264.904114,234.313354 273.606323,228.990021 
	C293.542419,216.794739 322.831604,226.354935 327.058167,252.348343 
	C327.320618,253.962265 327.736328,255.551239 328.114319,257.565125 
	C326.378601,258.236115 324.610565,258.706543 322.839844,258.717010 
	C311.398102,258.784668 299.942871,259.091949 288.517120,258.659485 
	C276.324249,258.197998 266.094879,261.991974 257.331116,270.820557 
z"/>
<path fill="#FED065" opacity="1.000000" stroke="none" 
	d="
M237.047104,175.400330 
	C242.249023,172.807785 247.450943,170.215256 253.204910,167.305939 
	C257.856537,164.967453 261.956116,162.945740 266.055725,160.924042 
	C266.841187,160.713547 267.652039,160.569733 268.407990,160.281738 
	C273.512421,158.337006 277.293823,159.474167 279.219238,163.567459 
	C281.008301,167.370850 279.505035,171.045395 275.066406,173.817932 
	C274.408630,174.228821 273.843536,174.788101 272.782349,175.632645 
	C268.224182,177.953445 264.119263,179.920303 260.014374,181.887177 
	C254.849716,184.148468 249.685059,186.409760 243.910156,188.628143 
	C241.215637,184.190277 239.131363,179.795303 237.047104,175.400330 
z"/>
<path fill="#FEE07D" opacity="1.000000" stroke="none" 
	d="
M236.768005,175.158478 
	C239.131363,179.795303 241.215637,184.190277 243.578979,188.755371 
	C244.090057,190.046509 244.291794,191.174759 244.559433,192.287170 
	C245.600830,196.615784 244.762619,200.050934 240.311295,202.047546 
	C235.596222,204.162476 232.908890,201.636322 230.591904,198.064590 
	C230.234497,197.513641 229.895096,196.951019 229.264862,195.812378 
	C226.929520,191.095581 224.876678,186.960236 222.823822,182.824890 
	C222.779816,182.498184 222.791214,182.151886 222.683701,181.847626 
	C220.407013,175.404816 221.120392,172.017960 225.216476,169.899368 
	C229.263184,167.806320 232.236038,169.129501 236.768005,175.158478 
z"/>
<path fill="#FCD167" opacity="1.000000" stroke="none" 
	d="
M222.484375,182.912994 
	C224.876678,186.960236 226.929520,191.095581 228.996765,195.604797 
	C225.085098,198.479996 221.229843,198.941406 217.893723,195.108643 
	C214.252502,190.925369 216.013504,186.093140 222.484375,182.912994 
z"/>
<path fill="#FCE07E" opacity="1.000000" stroke="none" 
	d="
M265.987549,160.577621 
	C261.956116,162.945740 257.856537,164.967453 253.381683,167.008148 
	C249.825562,161.897797 250.543808,157.821899 255.053436,155.410965 
	C259.463043,153.053528 263.158478,154.692841 265.987549,160.577621 
z"/>
<path fill="#FEE07D" opacity="1.000000" stroke="none" 
	d="
M260.132355,182.223480 
	C264.119263,179.920303 268.224182,177.953445 272.720856,175.963226 
	C275.868073,180.613449 275.047791,184.985443 270.989075,187.258423 
	C267.248322,189.353317 263.197998,187.581146 260.132355,182.223480 
z"/>
</svg>